# xmcd
#
# Track frame offsets:
#	150
#	19013
#	33034
#	48218
#	64471
#	74095
#	83539
#	97873
#	120520
#	136732
#	146589
#	160993
#	178195
#	190942
#	202263
#	223320
#	233136
#	250100
#	257508
#	263429
#	277460
#	288474
#
# Disc length: 3965 seconds
#
# Revision: 0
# Processed by: cddbd v1.5.1PL2 Copyright (c) Steve Scherf et al.
# Submitted via: EasyCDDAExtractor 10.0.1.1
#
DISCID=4a0f7b16
DTITLE=Various Artist - NIX GUT Unterstützersampler
DYEAR=2006
DGENRE=Punk
TTITLE0=Rubberslime - Dagegen
TTITLE1=Missbrauch - Die Ruhe vor dem Sturm
TTITLE2=TPunkterror - Ich werde schrein
TTITLE3=Die Gefahr - Cruel Adolf
TTITLE4=Kolporteure - Zu spät für diese Zeit
TTITLE5=Stage Disaster - Collision
TTITLE6=Irrenoffensive - Beton brennt doch
TTITLE7=StaatsPunkrott - Gib die Hoffnung niemals auf
TTITLE8=Optimale Härte - Nazischwein
TTITLE9=ÜberDosisNichts - Doitsche Justitz
TTITLE10=Konflikt - Mrtva Planeta II
TTITLE11=Frustkiller - Koma
TTITLE12=L.A.K. - Niemals geben
TTITLE13=Plexus - Here to help
TTITLE14=Ni Ju San - Wacht auf
TTITLE15=Speichelbroiss - Thats Punk
TTITLE16=Nada - So ein Tag
TTITLE17=ESA-Zecken - Nazis raus
TTITLE18=Tetris Attack - No regents
TTITLE19=Wilde Zeiten - Du bist Nazi
TTITLE20=Kann ich mit leben - Gewalt
TTITLE21=Alarmsignal - UNsere Agenda heißt Widerstand
EXTD=
EXTT0=
EXTT1=
EXTT2=
EXTT3=
EXTT4=
EXTT5=
EXTT6=
EXTT7=
EXTT8=
EXTT9=
EXTT10=
EXTT11=
EXTT12=
EXTT13=
EXTT14=
EXTT15=
EXTT16=
EXTT17=
EXTT18=
EXTT19=
EXTT20=
EXTT21=
PLAYORDER=
